<svg xmlns="http://www.w3.org/2000/svg" version="1.1" xmlns:xlink="http://www.w3.org/1999/xlink" width="2000" height="373" viewBox="0 0 2000 373"><g transform="matrix(1,0,0,1,-2.053867973084607,-1.2676261538461517)"><svg viewBox="0 0 348 65" data-background-color="#c8c8c8" preserveAspectRatio="xMidYMid meet" height="373" width="2000" xmlns="http://www.w3.org/2000/svg" xmlns:xlink="http://www.w3.org/1999/xlink"><g id="tight-bounds" transform="matrix(1,0,0,1,0.3573730273167257,0.22090000000000032)"><svg viewBox="0 0 347.28525394536655 64.5582" height="64.5582" width="347.28525394536655"><g><svg viewBox="0 0 347.28525394536655 64.5582" height="64.5582" width="347.28525394536655"><g><svg viewBox="0 0 347.28525394536655 64.5582" height="64.5582" width="347.28525394536655"><g id="textblocktransform"><svg viewBox="0 0 347.28525394536655 64.5582" height="64.5582" width="347.28525394536655" id="textblock"><g><svg viewBox="0 0 347.28525394536655 64.5582" height="64.5582" width="347.28525394536655"><g><svg><g></g><g></g></svg></g><g><svg><g></g><g><svg></svg></g></svg></g><g id="text-0"><svg viewBox="0 0 347.28525394536655 64.5582" height="64.5582" width="347.28525394536655"><g transform="matrix(1,0,0,1,0,12.329099999999997)"><svg width="122.45000000000002" viewBox="-0.3 -39.2 122.44 39.900000000000006" height="39.900000000000006" data-palette-color="#000000"><path d="M31.85-35.4L31.85-35.4 31.85-34.4Q30.9-34.2 29.83-33.25 28.75-32.3 27.9-30.05L27.9-30.05 16.15 0.25Q16.05 0.25 15.95 0.25 15.85 0.25 15.75 0.25L15.75 0.25Q15.65 0.25 15.55 0.25 15.45 0.25 15.35 0.25L15.35 0.25 3.15-31.2Q2.4-33.1 1.45-33.73 0.5-34.35-0.3-34.4L-0.3-34.4-0.3-35.4Q0.7-35.35 2.18-35.3 3.65-35.25 5.05-35.25L5.05-35.25Q7-35.25 8.7-35.3 10.4-35.35 11.45-35.4L11.45-35.4 11.45-34.4Q9.75-34.35 8.88-34 8-33.65 7.93-32.77 7.85-31.9 8.5-30.2L8.5-30.2 17.8-5.55 17-4.7 25.7-27.3Q26.75-30 26.7-31.53 26.65-33.05 25.55-33.7 24.45-34.35 22.35-34.4L22.35-34.4 22.35-35.4Q23.8-35.35 25.3-35.3 26.8-35.25 28.1-35.25L28.1-35.25Q29.4-35.25 30.25-35.3 31.1-35.35 31.85-35.4ZM45.1-26.45L45.1-26.45Q49.5-26.45 51.97-23.78 54.45-21.1 54.45-15.45L54.45-15.45 36.8-15.45 36.75-16.4 49.65-16.4Q49.75-18.85 49.25-20.93 48.75-23 47.67-24.25 46.6-25.5 44.9-25.5L44.9-25.5Q42.6-25.5 40.82-23.2 39.05-20.9 38.7-15.9L38.7-15.9 38.85-15.7Q38.75-14.95 38.7-14.05 38.65-13.15 38.65-12.25L38.65-12.25Q38.65-8.85 39.75-6.4 40.85-3.95 42.62-2.68 44.4-1.4 46.3-1.4L46.3-1.4Q47.8-1.4 49.15-1.88 50.5-2.35 51.65-3.45 52.8-4.55 53.65-6.4L53.65-6.4 54.65-6Q54.1-4.35 52.85-2.8 51.6-1.25 49.7-0.28 47.8 0.7 45.3 0.7L45.3 0.7Q41.7 0.7 39.12-0.95 36.55-2.6 35.17-5.53 33.8-8.45 33.8-12.25L33.8-12.25Q33.8-16.65 35.2-19.83 36.6-23 39.15-24.73 41.7-26.45 45.1-26.45ZM66.2-39.2L66.2-39.2 66.2-4.65Q66.2-2.55 67.07-1.8 67.95-1.05 70-1.05L70-1.05 70 0Q69.15-0.05 67.42-0.13 65.7-0.2 63.95-0.2L63.95-0.2Q62.25-0.2 60.5-0.13 58.75-0.05 57.9 0L57.9 0 57.9-1.05Q59.95-1.05 60.82-1.8 61.7-2.55 61.7-4.65L61.7-4.65 61.7-33.2Q61.7-35.45 60.9-36.52 60.09-37.6 57.9-37.6L57.9-37.6 57.9-38.65Q59.5-38.5 61-38.5L61-38.5Q62.45-38.5 63.77-38.68 65.09-38.85 66.2-39.2ZM77.39-5.7L77.39-5.7Q78.69-5.7 79.64-4.75 80.59-3.8 80.59-2.5L80.59-2.5Q80.59-1.2 79.64-0.25 78.69 0.7 77.39 0.7L77.39 0.7Q76.09 0.7 75.14-0.25 74.19-1.2 74.19-2.5L74.19-2.5Q74.19-3.8 75.14-4.75 76.09-5.7 77.39-5.7ZM92.24 0.35L92.24 0.35Q90.19 0.35 88.69-0.43 87.19-1.2 86.41-2.6 85.64-4 85.64-5.85L85.64-5.85Q85.64-8.05 86.66-9.45 87.69-10.85 89.29-11.7 90.89-12.55 92.66-13.13 94.44-13.7 96.04-14.23 97.64-14.75 98.66-15.45 99.69-16.15 99.69-17.3L99.69-17.3 99.69-20.4Q99.69-22.5 99.06-23.6 98.44-24.7 97.39-25.08 96.34-25.45 95.04-25.45L95.04-25.45Q93.79-25.45 92.36-25.1 90.94-24.75 90.09-23.65L90.09-23.65Q91.04-23.45 91.74-22.65 92.44-21.85 92.44-20.6L92.44-20.6Q92.44-19.35 91.64-18.63 90.84-17.9 89.59-17.9L89.59-17.9Q88.14-17.9 87.47-18.82 86.79-19.75 86.79-20.9L86.79-20.9Q86.79-22.2 87.44-23 88.09-23.8 89.09-24.5L89.09-24.5Q90.24-25.3 92.06-25.88 93.89-26.45 96.19-26.45L96.19-26.45Q98.24-26.45 99.69-25.98 101.14-25.5 102.09-24.6L102.09-24.6Q103.39-23.4 103.79-21.68 104.19-19.95 104.19-17.55L104.19-17.55 104.19-3.65Q104.19-2.4 104.56-1.85 104.94-1.3 105.74-1.3L105.74-1.3Q106.29-1.3 106.79-1.55 107.29-1.8 107.99-2.35L107.99-2.35 108.54-1.5Q107.49-0.7 106.54-0.18 105.59 0.35 103.99 0.35L103.99 0.35Q102.54 0.35 101.59-0.15 100.64-0.65 100.16-1.63 99.69-2.6 99.69-4.1L99.69-4.1Q98.34-1.85 96.47-0.75 94.59 0.35 92.24 0.35ZM94.04-1.65L94.04-1.65Q95.69-1.65 97.11-2.6 98.54-3.55 99.69-5.45L99.69-5.45 99.69-15.25Q99.09-14.4 97.94-13.83 96.79-13.25 95.44-12.68 94.09-12.1 92.86-11.33 91.64-10.55 90.84-9.3 90.04-8.05 90.04-6.05L90.04-6.05Q90.04-4.05 91.11-2.85 92.19-1.65 94.04-1.65ZM115.74-38.25L115.74-38.25Q117.04-38.25 117.99-37.3 118.94-36.35 118.94-35.05L118.94-35.05Q118.94-33.75 117.99-32.8 117.04-31.85 115.74-31.85L115.74-31.85Q114.44-31.85 113.49-32.8 112.54-33.75 112.54-35.05L112.54-35.05Q112.54-36.35 113.49-37.3 114.44-38.25 115.74-38.25ZM118.34-26.3L118.34-26.3 118.34-4.65Q118.34-2.55 119.21-1.8 120.09-1.05 122.14-1.05L122.14-1.05 122.14 0Q121.29-0.05 119.56-0.13 117.84-0.2 116.09-0.2L116.09-0.2Q114.39-0.2 112.64-0.13 110.89-0.05 110.04 0L110.04 0 110.04-1.05Q112.09-1.05 112.96-1.8 113.84-2.55 113.84-4.65L113.84-4.65 113.84-20.3Q113.84-22.55 113.04-23.63 112.24-24.7 110.04-24.7L110.04-24.7 110.04-25.75Q111.64-25.6 113.14-25.6L113.14-25.6Q114.59-25.6 115.91-25.78 117.24-25.95 118.34-26.3Z" opacity="1" transform="matrix(1,0,0,1,0,0)" fill="#000000" class="undefined-tk-0"></path></svg></g><g><svg xmlns="http://www.w3.org/2000/svg" xmlns:xlink="http://www.w3.org/1999/xlink" version="1.1" x="137.69180000000003" y="0" viewBox="200.33781523123514 69.3 651.3519036201396 880.6" style="enable-background:new 0 0 1024 1024;" xml:space="preserve" height="64.5582" width="47.75165394536645" class="icon-dxe-0" data-fill-palette-color="accent" id="dxe-0"><g fill="#000000" data-fill-palette-color="accent"><path d="M723.3 949.9C674.4 949.9 601.2 921.7 512.9 887.7 487 877.7 460.2 867.4 432.5 857.2 390.8 841.9 354.6 814.4 327.9 777.8 302.3 742.7 286.6 701.2 282.6 657.8 278.7 615.4 286.2 573.3 304.5 536.1 324.6 495.1 356.4 461.4 399.1 435.9 405.9 431.8 412.9 428.1 418.3 425.4L418.5 425.3C422.2 423.5 426 421.6 430 419.9 538.7 370.9 603.7 411.1 639.7 455.2 644.8 455.9 649.5 456.7 654.1 457.6 693.6 465.7 731.5 485 763.6 513.2 789.1 535.6 809.6 562.4 824.7 592.9 840.7 625.2 849.6 660.2 851.3 696.7 854 754 842.6 813.4 819.3 863.8 800 905.6 773.9 937.6 752.8 945.4 744.2 948.4 734.3 949.9 723.3 949.9M427.2 443.2C419.7 447 414.2 450 409.4 453 334.8 497.5 294.9 573.4 302.6 655.9 310.3 739.1 364.1 810.7 439.5 838.4 467.3 848.6 494.2 859 520.2 869 620.4 907.6 706.9 940.9 745.8 926.5 773.2 916.4 837.1 823.6 831.3 697.4 828.3 631.5 799.6 571.3 750.4 528 720.9 502.1 686.2 484.4 650.1 477 644.8 475.9 639.3 475.1 633.2 474.3L629.1 473.8 626.5 470.5C581.4 413 518.1 402 438.1 438 434.4 439.7 430.8 441.4 427.2 443.2" fill="#000000" data-fill-palette-color="accent"></path><path d="M669 562C668.9 561.5 658.4 511.5 626.5 470.7L633.5 465.3 638.4 455.6C636.7 454.7 635 454.6 634.4 454.6H639.3L642.3 458.4C677.1 503 688.2 555.8 688.6 558.1zL678.8 560z" fill="#000000" data-fill-palette-color="accent"></path><path d="M346.2 896.6L326.2 895.4C329.5 838.7 322.9 785.9 320.5 769.4 250.8 737.7 211 680.2 202.2 598.5 196.1 542.1 205 474.2 228.7 396.5 262.8 284.9 221.1 98.9 220.7 97L240.2 92.6C240.3 93.1 251.2 141.2 257.5 202.8 266.1 286 262.8 353.2 247.8 402.4 224.9 477.4 216.2 542.7 222.1 596.4 230.3 672.3 267.8 725.1 333.5 753.3L338.5 755.4 339.4 760.8C339.9 763.5 350.3 826.2 346.2 896.6" fill="#000000" data-fill-palette-color="accent"></path><path d="M413.2 436.5C407.8 413.5 400.4 386.2 391.3 355.4 382.2 325.1 377.1 292.6 376.1 258.7 372.2 216.8 384.6 75.3 385.1 69.3L405 71C404.9 72.5 392.1 217.4 396 257V257.7C396.9 290 401.8 320.9 410.4 349.6 419.7 380.8 427.2 408.5 432.7 431.9z" fill="#000000" data-fill-palette-color="accent"></path><path d="M645.4 222.2C639.4 204.3 616.6 192.6 600 184 588 177.8 579.4 173.4 575.3 166.8 554.6 133.5 571.3 80.5 572.1 78.2L591.1 84.3C591 84.8 576.5 130.7 592.2 156.1 593.9 158.3 602.7 162.8 609.1 166.2 628.8 176.4 655.8 190.3 664.3 215.8z" fill="#000000" data-fill-palette-color="accent"></path><path d="M511.6 178.9C497.9 124.6 509.9 75.7 510.4 73.6L529.8 78.4C529.7 78.9 518.6 124.7 531 173.9z" fill="#000000" data-fill-palette-color="accent"></path><path d="M451.1 199.4C444.1 199.4 438 194.6 436.4 187.6 427.5 146.1 404.7 113.7 387.8 104.4L397.5 86.9C414.1 96.1 430.6 117.2 442.4 142.8 442.3 123.8 444 100.1 448.8 70.7L468.5 73.9C459.5 128.7 462 162.4 465.7 181.1 466.1 182.6 466.1 183.8 466.1 184.4 466.1 191.5 461.1 197.6 454.1 199.1H453.9C453 199.3 452 199.4 451.1 199.4" fill="#000000" data-fill-palette-color="accent"></path><path d="M545.5 418C504.3 383.7 465.6 328.6 492.2 286.2L492.7 285.4C514.5 257 553.4 262.7 572.7 275.5L561.7 292.2C550.5 284.8 523.5 278.7 508.8 297.3 488.3 330.9 530.1 379.3 558.2 402.7z" fill="#000000" data-fill-palette-color="accent"></path><path d="M749.8 311C678.2 292.5 615 290.8 574.5 292.7 530.6 294.7 503.2 301.2 503 301.3L498.3 281.9C499.5 281.6 527.3 274.9 573 272.8 615 270.8 680.6 272.5 754.8 291.7z" fill="#000000" data-fill-palette-color="accent"></path><path d="M762.6 536.3L752.4 529.6S752 529.3 751.1 528.7L750.7 528.4 750.3 528.1C720.8 502.2 686.1 484.5 650 477.1L648.6 476.8 647.4 476.2C607.3 455.4 625.4 401 631.4 383.1 638 363.1 657.1 350.2 677.8 351.9 722.6 355.3 746.7 419 759.7 453.2 760.7 455.9 761.7 458.4 762.5 460.6 777.5 499.1 767.6 524.2 767.1 525.2zM655.5 457.8C689.4 465 722 480.4 750.8 502.6 750.9 494.1 749.5 482.3 743.8 467.7 742.9 465.4 742 462.9 740.9 460.2 730.3 432.3 708.3 374.3 676.1 371.8 664.6 370.9 654 378.1 650.3 389.4 642.5 413.1 634.5 445.7 655.5 457.8" fill="#000000" data-fill-palette-color="accent"></path><path d="M732.7 374.8C700.5 368.6 678.7 371.6 678.4 371.7L675.5 351.9C676.5 351.8 701 348.3 736.4 355.2z" fill="#000000" data-fill-palette-color="accent"></path><path d="M426.2 897.4C422.7 873.4 425.9 847.6 426.1 846.5L445.9 849 436 847.7 445.9 849C445.9 849.2 442.9 873.3 446 894.5z" fill="#000000" data-fill-palette-color="accent"></path><path d="M674.4 839.8C644.4 813.7 651.7 795.8 659.4 776.8 664.8 763.5 671 748.4 667.2 724 662.7 694.5 654.1 683 643.3 668.4 632.1 653.4 619.5 636.3 608.8 598.5 596.9 556.4 609.1 528.2 621.5 511.9 634.9 494.2 651.4 486.7 652.1 486.4L660.3 504.6 656.2 495.5 660.4 504.6C658.3 505.6 609.9 528.8 628.1 593.1 637.8 627.5 648.8 642.3 659.4 656.6 670.9 672.1 681.8 686.8 687 721.2 691.5 751.1 683.7 770.4 677.9 784.6 670.9 801.8 668.3 808.3 687.5 825z" fill="#000000" data-fill-palette-color="accent"></path><path d="M532.3 720.1C521.6 702.5 518.5 684.8 523.1 667.4 530.7 638.4 557 620 572 611.6 593.4 599.6 604.3 560.7 606.7 546.7L626.4 550.1C626 552.5 615.7 609.9 581.8 629 571.9 634.5 548.4 649.8 542.5 672.5 539.4 684.4 541.7 697 549.5 709.7z" fill="#000000" data-fill-palette-color="accent"></path><path d="M601.8 814.7C588 800.8 579.5 755.1 607.3 725.2 629.3 701.5 634.9 651.9 635 651.4L654.9 653.5C654.7 655.8 648.5 710.1 622 738.7 601.3 761 610.4 794.8 616.1 800.6z" fill="#000000" data-fill-palette-color="accent"></path><path d="M756.2 705.3L755.8 702.9C752.3 683.1 747.9 658.5 703.4 649 651.2 637.9 613.4 604.6 611.8 603.2L625.1 588.3 618.4 595.8 625 588.3C625.4 588.6 660.6 619.5 707.4 629.5 765 641.9 771.5 677.9 775.3 699.5L775.7 701.8z" fill="#000000" data-fill-palette-color="accent"></path><path d="M721.2 815.7C706.5 813.7 693 803.9 680.9 786.4 672.5 774.2 668 762.6 667.8 762.2L686.4 754.9C690.6 765.5 705.4 793.5 723.8 795.9z" fill="#000000" data-fill-palette-color="accent"></path><path d="M456 582.9C452.8 576 449.3 575.4 437.4 574.4 425.4 573.4 409 572.1 390.9 558.2 354.8 530.7 358.4 472.5 358.6 470.1L378.6 471.5C378.6 472 375.6 521.4 403.1 542.4 416.6 552.7 428 553.6 439.1 554.5 451.7 555.5 466 556.7 474.2 574.5z" fill="#000000" data-fill-palette-color="accent"></path><path d="M410.5 695.6C375.1 695.6 347.2 672.9 334.5 632.9 324.2 600.1 296.4 577.3 296.1 577L308.7 561.5C310 562.6 341.5 588.4 353.5 626.9 358.7 643.4 375.7 681.3 420.1 674.9L422.9 694.7C418.7 695.3 414.6 695.6 410.5 695.6" fill="#000000" data-fill-palette-color="accent"></path><path d="M462 814C437.2 814 426 801.2 416.1 789.8 409 781.7 402.3 774 390.1 769.9 365.3 761.6 354.2 781.5 353 783.8L335.1 774.8C341.7 761.6 362.9 739.7 396.4 750.9 413.7 756.7 423.4 767.7 431.1 776.6 440.7 787.5 447 794.8 464.6 793.9L465.6 813.9C464.3 813.9 463.1 814 462 814" fill="#000000" data-fill-palette-color="accent"></path></g></svg></g><g transform="matrix(1,0,0,1,200.6852539453665,12.329099999999993)"><svg width="146.60000000000008" viewBox="2.1 -39.2 146.59 39.900000000000006" height="39.90000000000001" data-palette-color="#000000"><path d="M23 0L23 0 23-1Q24.7-1.1 25.58-1.4 26.45-1.7 26.75-2.6 27.05-3.5 27.05-5.3L27.05-5.3 27.05-30.1Q27.05-31.95 26.75-32.83 26.45-33.7 25.58-34.02 24.7-34.35 23-34.4L23-34.4 23-35.4Q24.15-35.35 25.9-35.3 27.65-35.25 29.35-35.25L29.35-35.25Q31.3-35.25 33-35.3 34.7-35.35 35.75-35.4L35.75-35.4 35.75-34.4Q34.05-34.35 33.18-34.02 32.3-33.7 32-32.83 31.7-31.95 31.7-30.1L31.7-30.1 31.7-5.3Q31.7-3.5 32-2.6 32.3-1.7 33.18-1.4 34.05-1.1 35.75-1L35.75-1 35.75 0Q34.7-0.1 33-0.13 31.3-0.15 29.35-0.15L29.35-0.15Q27.65-0.15 25.9-0.13 24.15-0.1 23 0ZM2.1 0L2.1 0 2.1-1Q3.8-1.1 4.67-1.4 5.55-1.7 5.85-2.6 6.15-3.5 6.15-5.3L6.15-5.3 6.15-30.1Q6.15-31.95 5.85-32.83 5.55-33.7 4.67-34.02 3.8-34.35 2.1-34.4L2.1-34.4 2.1-35.4Q3.15-35.35 4.85-35.3 6.55-35.25 8.5-35.25L8.5-35.25Q10.25-35.25 11.98-35.3 13.7-35.35 14.85-35.4L14.85-35.4 14.85-34.4Q13.15-34.35 12.28-34.02 11.4-33.7 11.1-32.83 10.8-31.95 10.8-30.1L10.8-30.1 10.8-5.3Q10.8-3.5 11.1-2.6 11.4-1.7 12.28-1.4 13.15-1.1 14.85-1L14.85-1 14.85 0Q13.7-0.1 11.98-0.13 10.25-0.15 8.5-0.15L8.5-0.15Q6.55-0.15 4.85-0.13 3.15-0.1 2.1 0ZM28.8-17.3L9.05-17.3 9.05-18.3 28.8-18.3 28.8-17.3ZM51.45-26.45L51.45-26.45Q55.85-26.45 58.32-23.78 60.8-21.1 60.8-15.45L60.8-15.45 43.15-15.45 43.1-16.4 56-16.4Q56.1-18.85 55.6-20.93 55.1-23 54.02-24.25 52.95-25.5 51.25-25.5L51.25-25.5Q48.95-25.5 47.17-23.2 45.4-20.9 45.05-15.9L45.05-15.9 45.2-15.7Q45.1-14.95 45.05-14.05 45-13.15 45-12.25L45-12.25Q45-8.85 46.1-6.4 47.2-3.95 48.97-2.68 50.75-1.4 52.65-1.4L52.65-1.4Q54.15-1.4 55.5-1.88 56.85-2.35 58-3.45 59.15-4.55 60-6.4L60-6.4 61-6Q60.45-4.35 59.2-2.8 57.95-1.25 56.05-0.28 54.15 0.7 51.65 0.7L51.65 0.7Q48.05 0.7 45.47-0.95 42.9-2.6 41.52-5.53 40.15-8.45 40.15-12.25L40.15-12.25Q40.15-16.65 41.55-19.83 42.95-23 45.5-24.73 48.05-26.45 51.45-26.45ZM71.7 0.35L71.7 0.35Q69.65 0.35 68.15-0.43 66.65-1.2 65.87-2.6 65.1-4 65.1-5.85L65.1-5.85Q65.1-8.05 66.12-9.45 67.15-10.85 68.75-11.7 70.35-12.55 72.12-13.13 73.9-13.7 75.5-14.23 77.1-14.75 78.12-15.45 79.15-16.15 79.15-17.3L79.15-17.3 79.15-20.4Q79.15-22.5 78.52-23.6 77.9-24.7 76.85-25.08 75.8-25.45 74.5-25.45L74.5-25.45Q73.25-25.45 71.82-25.1 70.4-24.75 69.55-23.65L69.55-23.65Q70.5-23.45 71.2-22.65 71.9-21.85 71.9-20.6L71.9-20.6Q71.9-19.35 71.1-18.63 70.3-17.9 69.05-17.9L69.05-17.9Q67.6-17.9 66.92-18.82 66.25-19.75 66.25-20.9L66.25-20.9Q66.25-22.2 66.9-23 67.55-23.8 68.55-24.5L68.55-24.5Q69.7-25.3 71.52-25.88 73.35-26.45 75.65-26.45L75.65-26.45Q77.7-26.45 79.15-25.98 80.6-25.5 81.55-24.6L81.55-24.6Q82.85-23.4 83.25-21.68 83.65-19.95 83.65-17.55L83.65-17.55 83.65-3.65Q83.65-2.4 84.02-1.85 84.4-1.3 85.2-1.3L85.2-1.3Q85.75-1.3 86.25-1.55 86.75-1.8 87.45-2.35L87.45-2.35 88-1.5Q86.95-0.7 86-0.18 85.05 0.35 83.45 0.35L83.45 0.35Q82 0.35 81.05-0.15 80.1-0.65 79.62-1.63 79.15-2.6 79.15-4.1L79.15-4.1Q77.8-1.85 75.92-0.75 74.05 0.35 71.7 0.35ZM73.5-1.65L73.5-1.65Q75.15-1.65 76.57-2.6 78-3.55 79.15-5.45L79.15-5.45 79.15-15.25Q78.55-14.4 77.4-13.83 76.25-13.25 74.9-12.68 73.55-12.1 72.32-11.33 71.1-10.55 70.3-9.3 69.5-8.05 69.5-6.05L69.5-6.05Q69.5-4.05 70.57-2.85 71.65-1.65 73.5-1.65ZM97.44-39.2L97.44-39.2 97.44-4.65Q97.44-2.55 98.32-1.8 99.19-1.05 101.24-1.05L101.24-1.05 101.24 0Q100.39-0.05 98.67-0.13 96.94-0.2 95.19-0.2L95.19-0.2Q93.49-0.2 91.74-0.13 89.99-0.05 89.14 0L89.14 0 89.14-1.05Q91.19-1.05 92.07-1.8 92.94-2.55 92.94-4.65L92.94-4.65 92.94-33.2Q92.94-35.45 92.14-36.52 91.34-37.6 89.14-37.6L89.14-37.6 89.14-38.65Q90.74-38.5 92.24-38.5L92.24-38.5Q93.69-38.5 95.02-38.68 96.34-38.85 97.44-39.2ZM111.84-34.05L111.84-34.05 111.84-25.7 119.24-25.7 119.24-24.7 111.84-24.7 111.84-5.35Q111.84-3 112.69-2.05 113.54-1.1 115.04-1.1L115.04-1.1Q116.54-1.1 117.64-2.33 118.74-3.55 119.54-6.45L119.54-6.45 120.54-6.2Q120.04-3.3 118.57-1.3 117.09 0.7 114.04 0.7L114.04 0.7Q112.34 0.7 111.24 0.28 110.14-0.15 109.29-0.95L109.29-0.95Q108.19-2.1 107.77-3.7 107.34-5.3 107.34-7.95L107.34-7.95 107.34-24.7 102.54-24.7 102.54-25.7 107.34-25.7 107.34-33.35Q108.59-33.4 109.74-33.55 110.89-33.7 111.84-34.05ZM129.34-39.15L129.34-39.15 129.34-20.45Q130.64-23.85 132.96-25.15 135.29-26.45 137.84-26.45L137.84-26.45Q139.74-26.45 141.01-25.95 142.29-25.45 143.14-24.55L143.14-24.55Q144.09-23.55 144.49-22.05 144.89-20.55 144.89-18L144.89-18 144.89-4.65Q144.89-2.55 145.76-1.8 146.64-1.05 148.69-1.05L148.69-1.05 148.69 0Q147.84-0.05 146.09-0.13 144.34-0.2 142.69-0.2L142.69-0.2Q141.04-0.2 139.46-0.13 137.89-0.05 137.09 0L137.09 0 137.09-1.05Q138.89-1.05 139.64-1.8 140.39-2.55 140.39-4.65L140.39-4.65 140.39-19.1Q140.39-20.65 140.14-21.95 139.89-23.25 139.01-24.05 138.14-24.85 136.34-24.85L136.34-24.85Q134.29-24.85 132.71-23.7 131.14-22.55 130.24-20.5 129.34-18.45 129.34-15.8L129.34-15.8 129.34-4.65Q129.34-2.55 130.09-1.8 130.84-1.05 132.64-1.05L132.64-1.05 132.64 0Q131.84-0.05 130.26-0.13 128.69-0.2 127.04-0.2L127.04-0.2Q125.39-0.2 123.64-0.13 121.89-0.05 121.04 0L121.04 0 121.04-1.05Q123.09-1.05 123.96-1.8 124.84-2.55 124.84-4.65L124.84-4.65 124.84-33.15Q124.84-35.4 124.04-36.48 123.24-37.55 121.04-37.55L121.04-37.55 121.04-38.6Q122.64-38.45 124.14-38.45L124.14-38.45Q125.59-38.45 126.91-38.63 128.24-38.8 129.34-39.15Z" opacity="1" transform="matrix(1,0,0,1,0,0)" fill="#000000" class="undefined-tk-1"></path></svg></g></svg></g></svg></g></svg></g></svg></g></svg></g><defs></defs></svg><rect width="347.28525394536655" height="64.5582" fill="none" stroke="none" visibility="hidden"></rect></g></svg></g></svg>